<?xml version="1.0" encoding="utf-8"?>
<!-- Generator: Adobe Illustrator 20.1.0, SVG Export Plug-In . SVG Version: 6.00 Build 0)  -->
<svg version="1.1" id="レイヤー_1" xmlns="http://www.w3.org/2000/svg" xmlns:xlink="http://www.w3.org/1999/xlink" x="0px"
	 y="0px" viewBox="0 0 453.5 73.7" style="enable-background:new 0 0 453.5 73.7;" xml:space="preserve">
<style type="text/css">
	.st0{fill:#C9161D;}
	.st1{fill:#040000;}
</style>
<g>
	<g>
		<path class="st0" d="M18.3,55.2c0.5-1.2,1.9-2.6,5.7-2.6c0,0,3.3-0.1,3.8,2.4s-1.2,7.8-5.3,7.8c-2.8,0-3.9-3-4.3-4.8
			C18.1,56.8,18.1,55.9,18.3,55.2z"/>
		<path class="st0" d="M38.3,38.3c-3.4,3.4-4.8,5-6,7.9c-1.4,3.5-3.5,6.1-7.6,3.2c-4.1-3,0.1-7.3,1.1-8.5c0.5-0.6,2.5-2.5,4.3-4
			c1.3-1.1,2.6-2,3.1-2.5s1.7-1.4,1.9-2.6c0.2-0.9-0.1-1.7-1-1.9c-0.2-0.1-0.7-0.2-1.5,0s-2.1,0.5-3.5,0.9c-3.4,0.9-7.6,2.3-9.7,3
			c-1.8,0.6-2.7-0.6-2.9-0.9c-0.2-0.3-0.4-1,0.6-2.7c0.5-0.9,2.3-4.1,6.5-9.4c2.1-2.7,5.1-6.2,7.2-8.7c1.7-2.1,2.8-3.5,2.9-3.7
			c0.8-0.9,1.8-2.7,4.3-3.8c0.5-0.2,1.3-0.5,1.9-0.4c1.1,0.1,1.5,1.1,1.8,2.1c0.3,1.3,0,3-2.4,4.1c-2,0.9-3.6,2.3-4.8,3.4
			c-0.2,0.2-0.8,0.7-1.1,1c-1,0.9-3.3,3.1-5.5,5.7c-2.3,2.6-4.2,5.2-5.3,6.8c-0.3,0.5-1.1,1.6-1.3,2.1c-0.1,0.4,0.1,0.6,1.1,0.4
			c0.6-0.1,3.8-0.9,6-1.4c5.9-1.3,10.5-1.8,11.4-1.9c2.8-0.2,5.9-0.2,6.2,2.1c0.2,1.6-0.5,2.7-1.8,4.3c-1.3,1.5-3.8,3.5-4.2,3.9
			C39.4,37.2,38.8,37.8,38.3,38.3z"/>
	</g>
</g>
<g>
	<path class="st1" d="M69.3,12.1l4.4,0.2c0,0.3-0.3,0.6-0.8,0.7v3.1H77l0.6-0.3l3.1,1.2c-0.1,0.1-0.2,0.3-0.4,0.4
		c-1.5,8.5-4.7,12.9-11.9,15.5c-0.5-0.8-1.7-2.2-2.4-3c6.3-2.1,9.1-5.6,9.9-10.5H66V24h-3.4v-7.9h6.8L69.3,12.1L69.3,12.1z"/>
	<path class="st1" d="M93.5,22.5c-1.9,1.2-4.9,2.9-7.2,4c-0.5-0.8-1.4-2.1-2.1-2.7c5.9-2.6,12.9-7.4,16.4-11.5l3.5,2.6
		c-0.1,0.2-0.4,0.3-0.8,0.3c-1.8,1.7-3.9,3.5-6.1,5.1l0.8,0.3c-0.1,0.2-0.3,0.4-0.7,0.5v12h-3.8C93.5,33.1,93.5,22.5,93.5,22.5z"/>
	<path class="st1" d="M110.3,13.7c2.3,0.7,5.1,1.9,6.8,3l-1.9,3.2c-1.7-1.1-4.4-2.4-6.6-3.2L110.3,13.7z M109.1,29.2
		c7.7-2.3,13-6.9,15.6-13.2c1,0.8,2.3,1.5,3.3,2.1c-2.9,6.3-8.4,11.3-16,14.1c0,0.3-0.2,0.5-0.4,0.6L109.1,29.2z"/>
	<path class="st1" d="M150.6,22.7h-7.1l0.5,0.1c-0.1,0.2-0.3,0.3-0.6,0.3c-0.6,3.6-2.1,7.3-6.9,9.8c-0.5-0.6-2-1.9-2.7-2.4
		c4.4-2.3,5.5-4.7,5.9-7.9h-8v-3.3h18.8v3.4H150.6z M148.2,16.3h-14.3V13h14.3V16.3z"/>
	<path class="st1" d="M158.9,18.4c0.6,1.4,1.3,3.5,1.6,4.9l-2.7,0.8c-0.3-1.5-0.9-3.5-1.5-4.9L158.9,18.4z M172.3,19.2
		c-0.1,0.2-0.3,0.3-0.6,0.3c-1.9,6.9-5.7,10.9-10.8,13c-0.4-0.6-1.3-1.7-1.9-2.2c4.7-1.7,8.4-5.4,9.8-12.2L172.3,19.2z M164.4,17.5
		c0.5,1.3,1,3.6,1.1,5l-2.9,0.6c-0.2-1.6-0.7-3.7-1.1-5.1L164.4,17.5z"/>
	<path class="st1" d="M196.8,17.3c-0.1,0.2-0.4,0.4-0.6,0.5c-2.7,7.6-6.3,12.1-12.5,15.2c-0.6-0.8-1.6-2-2.7-2.7
		c5.7-2.6,8.9-6.4,10.5-11.2h-6.1c-1.1,1.6-3,3.7-4.8,5.1c-0.7-0.7-2-1.7-2.9-2.3c3-2.3,5.9-6,7.2-9.8l4.4,1
		c-0.1,0.3-0.4,0.4-0.8,0.5c-0.3,0.7-0.8,1.5-1.1,2.2h5.9l0.5-0.2L196.8,17.3z"/>
	<path class="st1" d="M228.7,15.4v16.4H225v-1.2h-13v-3.4h13v-8.5h-12.8v-3.4h16.5V15.4z"/>
	<path class="st1" d="M237,26.1c4.7,0.6,10.2,1.8,14.3,3.2l-1.6,3.6c-3.5-1.3-9.4-2.9-14.2-3.6L237,26.1z M238.6,12.6
		c3.9,0.4,9.4,1.5,12.4,2.6l-1.5,3.6c-3.4-1.4-8.2-2.4-12.2-2.9L238.6,12.6z M238.7,19.4c3.4,0.3,8.3,1.5,11.1,2.5l-1.2,3.5
		c-2.6-1.1-7.4-2.3-11.1-2.8L238.7,19.4z"/>
	<path class="st1" d="M275.1,28.5v2.7h-15.9v-2.7h8.8c0.3-2,0.7-5.1,0.9-7.1h-8.1v-2.7h9l0.5-0.2l2.2,1c-0.1,0.2-0.2,0.3-0.4,0.4
		c-0.3,2.1-1,6.5-1.3,8.6C270.8,28.5,275.1,28.5,275.1,28.5z"/>
	<path class="st1" d="M300,27.2v3.4h-19.5v-3.4H300z M297.7,15.4v3.4H283v-3.4H297.7z"/>
	<path class="st1" d="M323.2,17.1v3.4h-4.5c0,0.2-0.3,0.3-0.5,0.3c-0.9,4.8-2.7,9.3-7.4,12.1c-0.7-0.6-2.2-1.6-3.1-2.2
		c4.2-2.3,6.3-6.4,6.8-10.3H310c-1,1.6-2.1,3-3.3,4.3c-0.8-0.5-2.3-1.3-3.2-1.7c3-2.6,5.1-7,6-10.8l4.3,0.9
		c-0.1,0.2-0.3,0.4-0.7,0.4c-0.3,0.8-0.8,2.3-1.4,3.6C311.7,17.1,323.2,17.1,323.2,17.1z"/>
	<path class="st1" d="M327.1,20.5h19.4V24h-18.4c-0.2,0.2-0.5,0.4-0.8,0.4L327.1,20.5z"/>
	<path class="st1" d="M351.8,18.6c2.1,0.6,4.3,1.4,5.8,2.2l-1.5,3c-1.5-0.8-3.8-1.8-5.8-2.4L351.8,18.6z M352.1,29.2
		c6.9-2,12.1-5.7,15.4-12.6c0.7,0.6,2.4,1.9,3.1,2.3c-3.2,6.5-9,11-15.5,13.1c0,0.2-0.1,0.5-0.4,0.7L352.1,29.2z M354.7,12.9
		c2.1,0.6,4.3,1.5,5.9,2.3l-1.7,3c-1.7-1-3.7-1.9-5.7-2.5L354.7,12.9z"/>
	<path class="st1" d="M389.4,18.3v14.5h-2.8v-0.9h-9.7v-2.6h9.7v-2.9H378v-2.6h8.6v-3h-9.1v-2.6h11.9V18.3z"/>
	<path class="st1" d="M399.2,13.7c2.3,0.7,5.1,1.9,6.8,3l-1.9,3.2c-1.7-1.1-4.4-2.4-6.6-3.2L399.2,13.7z M398.1,29.2
		c7.7-2.3,13-6.9,15.6-13.2c1,0.8,2.3,1.5,3.3,2.1c-2.9,6.3-8.4,11.3-16,14.1c0,0.3-0.2,0.5-0.4,0.6L398.1,29.2z"/>
	<path class="st1" d="M436.4,16c-0.1,0.1-0.2,0.1-0.3,0.2c-0.7,1.7-2.1,4.8-3.7,7.1c2.1,1.7,5.5,4.7,7.6,6.9l-3.3,2.6
		c-1.8-2.2-4.7-5.1-6.5-6.7c-2.2,2.4-4.8,4.9-7.7,6.7c-0.6-0.8-1.8-2-2.6-2.7c5.5-3,9.5-7.7,11.4-12.4h-9.6v-3.4h11.6l0.6-0.2
		L436.4,16z M436.5,12.4c0.9,1,1.8,2.1,2.3,3.2l-1.7,1.1c-0.5-0.9-1.4-2.3-2.3-3.3L436.5,12.4z M439.3,11.1c0.9,0.9,1.8,2.2,2.3,3
		l-1.6,1.1c-0.5-0.9-1.6-2.4-2.3-3.2L439.3,11.1z"/>
</g>
<g>
	<path class="st1" d="M78.7,44.3c-0.5,0-0.7,0.1-0.9,0.9l-2.6,10.3h-1.4l-2.5-8.8l0,0l-2.4,8.8h-1.5l-2.8-10.1
		c-0.3-0.9-0.4-1.1-1-1.1v-0.6h3.6v0.6c-0.6,0-0.8,0.1-0.8,0.4c0,0.2,0,0.4,0.1,0.7l2.1,7.7l0,0l2.2-8.1c-0.2-0.6-0.2-0.8-1-0.8
		v-0.6h3.6v0.6c-0.6,0-0.8,0.1-0.8,0.5c0,0.2,0,0.4,0.1,0.7l2.2,7.7l0,0l1.9-7.7c0.1-0.3,0.1-0.6,0.1-0.7c0-0.3-0.2-0.4-0.8-0.4
		v-0.6h2.5v0.6H78.7z"/>
	<path class="st1" d="M82.2,47.3v6.2c0,1.1,0.1,1.2,1,1.2v0.5h-3.8v-0.5c1,0,1.1-0.1,1.1-1.2v-3.9c0-1.1,0-1.1-1.1-1.1V48
		c0.9-0.1,1.7-0.3,2.6-0.7H82.2z M82.2,45.1c0,0.7-0.5,1.2-1.1,1.2s-1-0.5-1-1.2s0.4-1.2,1-1.2C81.8,44,82.2,44.5,82.2,45.1z"/>
	<path class="st1" d="M86.7,48.6c0.7-0.9,1.6-1.4,2.6-1.4c1.7,0,2.4,0.9,2.4,2.6v3.8c0,1,0.1,1.2,0.8,1.2v0.5h-3.4v-0.5
		c0.7,0,0.8-0.1,0.8-1.2v-3.8c0-1.3-0.4-1.8-1.3-1.8c-0.6,0-1.3,0.6-2,1.5v4c0,1.1,0,1.2,0.8,1.2v0.5h-3.5v-0.5c0.9,0,1-0.1,1-1.2
		v-3.8c0-1.1-0.1-1.2-1-1.2V48c0.8-0.1,1.7-0.3,2.4-0.7l0.2,0.1L86.7,48.6L86.7,48.6z"/>
	<path class="st1" d="M99.8,48.2c0.5,0.5,0.8,1.1,0.8,1.9c0,2-1.5,2.9-3.4,2.9c-0.6,0-1.1-0.1-1.6-0.3c-0.4,0.3-0.7,0.5-0.7,0.9
		c0,0.5,0.5,0.7,1.4,0.7h1.8c2.5,0,3.3,1.1,3.3,2.3c0,1.7-1.8,2.9-4.4,2.9c-2.3,0-3.8-0.7-3.8-2c0-1,0.9-1.7,1.9-2.1
		c-0.7-0.2-1.3-0.6-1.3-1.3s0.6-1.2,1.3-1.6c-0.8-0.5-1.3-1.3-1.3-2.4c0-1.8,1.5-2.9,3.4-2.9c0.9,0,1.6,0.2,2.1,0.5l2.2-0.3v0.9
		L99.8,48.2z M95.8,55.6c-0.7,0.5-1.2,1-1.2,1.6c0,0.9,0.9,1.6,2.5,1.6c1.8,0,2.9-0.9,2.9-1.8c0-0.7-0.4-1.4-2.1-1.4
		C97.9,55.6,95.8,55.6,95.8,55.6z M98.8,50.1c0-1.2-0.5-2.3-1.6-2.3s-1.6,1.1-1.6,2.3c0,1.4,0.6,2.3,1.7,2.3
		C98.3,52.4,98.8,51.4,98.8,50.1z"/>
	<path class="st1" d="M102.1,48v-0.5c1.2-0.1,1.8-0.8,2.2-2.5h0.5v2.4h2v0.7h-2v5.3c0,0.9,0.3,1.3,0.9,1.3c0.4,0,0.8-0.1,1.1-0.4
		l0.3,0.5c-0.5,0.4-1.1,0.7-2,0.7c-1.1,0-2.1-0.4-2.1-2.1v-5.3h-0.9V48z"/>
	<path class="st1" d="M114.9,53.5c-0.7,1.3-1.8,1.9-3.2,1.9c-1.9,0-3.8-0.9-3.8-4.3c0-2,1.1-3.9,3.6-3.9c2.9,0,3.4,2.6,3.4,4h-5.1
		c0,1,0.1,1.9,0.6,2.5c0.4,0.6,1,0.9,1.7,0.9c1.1,0,1.9-0.7,2.3-1.5L114.9,53.5z M113.1,50.6c0-0.9-0.1-2.8-1.6-2.8
		c-0.7,0-1.6,0.6-1.7,2.8H113.1z"/>
	<path class="st1" d="M122.7,53.7c-0.6,1-1.5,1.8-2.9,1.8c-3.3,0-3.7-2.9-3.7-4.2c0-2.4,1.4-4.1,3.8-4.1c1.6,0,2.6,0.9,2.6,1.7
		c0,0.4-0.2,0.7-0.6,0.7c-0.5,0-0.7-0.5-0.9-0.9c-0.2-0.5-0.5-0.9-1.1-0.9c-1,0-1.9,1-1.9,3.4c0,3,1.4,3.5,2.1,3.5
		c1.1,0,1.7-0.8,2-1.3L122.7,53.7z"/>
	<path class="st1" d="M123.5,54.7c0.9,0,1-0.1,1-1.2v-7.9c0-1-0.1-1.1-1-1.1V44c0.8-0.1,1.7-0.3,2.5-0.7l0.2,0.1v5.2l0,0
		c0.7-0.8,1.6-1.3,2.7-1.3c2.3,0,2.3,1.9,2.3,2.8v3.5c0,1,0.1,1.2,0.9,1.2v0.5h-3.5v-0.5c0.8,0,0.8-0.1,0.8-1.2v-3.4
		c0-1-0.1-2.1-1.2-2.1c-0.7,0-1.4,0.6-2,1.4v4c0,1.1,0.1,1.2,0.8,1.2v0.5h-3.6L123.5,54.7L123.5,54.7z"/>
	<path class="st1" d="M135.7,48.6c0.7-0.9,1.6-1.4,2.6-1.4c1.7,0,2.4,0.9,2.4,2.6v3.8c0,1,0.1,1.2,0.8,1.2v0.5h-3.4v-0.5
		c0.7,0,0.8-0.1,0.8-1.2v-3.8c0-1.3-0.4-1.8-1.3-1.8c-0.6,0-1.3,0.6-2,1.5v4c0,1.1,0,1.2,0.8,1.2v0.5h-3.5v-0.5c0.9,0,1-0.1,1-1.2
		v-3.8c0-1.1-0.1-1.2-1-1.2V48c0.8-0.1,1.7-0.3,2.4-0.7l0.2,0.1L135.7,48.6L135.7,48.6z"/>
	<path class="st1" d="M142.4,51.3c0-2.3,1.1-4.1,3.8-4.1c2.9,0,3.8,1.9,3.8,4.1c0,1.6-0.4,2.6-1.1,3.2c-0.7,0.7-1.6,0.9-2.8,0.9
		C143.9,55.4,142.4,54.3,142.4,51.3z M144.2,51.3c0,1.6,0.3,3.5,2,3.5c1.6,0,2-1.6,2-3.5c0-1.8-0.3-3.5-2-3.5S144.2,49.7,144.2,51.3
		z"/>
	<path class="st1" d="M151.1,54.7c1,0,1.1-0.2,1.1-1.2v-7.9c0-1-0.1-1.1-1.1-1.1V44c0.9-0.1,1.7-0.3,2.6-0.7l0.2,0.1v10.2
		c0,1,0.1,1.2,1,1.2v0.5h-3.8V54.7z"/>
	<path class="st1" d="M155.9,51.3c0-2.3,1.1-4.1,3.8-4.1c2.9,0,3.8,1.9,3.8,4.1c0,1.6-0.4,2.6-1.1,3.2c-0.7,0.7-1.6,0.9-2.8,0.9
		C157.4,55.4,155.9,54.3,155.9,51.3z M157.7,51.3c0,1.6,0.3,3.5,2,3.5c1.6,0,2-1.6,2-3.5c0-1.8-0.3-3.5-2-3.5S157.7,49.7,157.7,51.3
		z"/>
	<path class="st1" d="M171.1,48.2c0.5,0.5,0.8,1.1,0.8,1.9c0,2-1.5,2.9-3.4,2.9c-0.6,0-1.1-0.1-1.6-0.3c-0.4,0.3-0.7,0.5-0.7,0.9
		c0,0.5,0.5,0.7,1.4,0.7h1.8c2.5,0,3.3,1.1,3.3,2.3c0,1.7-1.8,2.9-4.4,2.9c-2.3,0-3.8-0.7-3.8-2c0-1,0.9-1.7,1.9-2.1
		c-0.7-0.2-1.3-0.6-1.3-1.3s0.6-1.2,1.3-1.6c-0.8-0.5-1.3-1.3-1.3-2.4c0-1.8,1.5-2.9,3.4-2.9c0.9,0,1.6,0.2,2.1,0.5l2.2-0.3v0.9
		L171.1,48.2z M167.1,55.6c-0.7,0.5-1.2,1-1.2,1.6c0,0.9,0.9,1.6,2.5,1.6c1.8,0,2.9-0.9,2.9-1.8c0-0.7-0.4-1.4-2.1-1.4
		C169.2,55.6,167.1,55.6,167.1,55.6z M170.1,50.1c0-1.2-0.5-2.3-1.6-2.3s-1.6,1.1-1.6,2.3c0,1.4,0.6,2.3,1.7,2.3
		C169.6,52.4,170.1,51.4,170.1,50.1z"/>
	<path class="st1" d="M177,55.1l-2.8-6.1c-0.4-1-0.5-1.1-1.1-1.1v-0.5h3.5v0.5c-0.5,0-0.7,0.1-0.7,0.3c0,0.1,0.1,0.3,0.2,0.6
		l1.8,4.3l0,0l1.7-4.6c0.1-0.2,0.1-0.3,0.1-0.4c0-0.2-0.2-0.3-0.7-0.3v-0.5h2.4v0.5c-0.5,0-0.7,0.1-1,0.8l-3.3,8.5
		c-0.6,1.3-1.3,2.2-2.5,2.2c-1.1,0-1.8-0.6-1.8-1.3c0-0.3,0.3-0.6,0.6-0.6c0.5,0,0.7,0.3,0.8,0.6c0.2,0.3,0.3,0.6,0.6,0.6
		c0.7,0,1.1-0.9,1.4-1.6L177,55.1z"/>
	<path class="st1" d="M193.6,46.9c-0.3-1.7-0.5-2.7-2.2-2.7c-2.7,0-3.1,3.2-3.1,5.1c0,3.9,1.5,5.4,3,5.4c1.6,0,2.3-1.4,2.6-2.5
		l0.8,0.2c-0.7,2.5-2.3,3.1-3.7,3.1c-3,0-4.7-2.1-4.7-6.1c0-3.8,1.8-5.9,5-5.9c0.7,0,1.6,0.1,2.7,0.5c0.1,0.9,0.2,1.8,0.4,2.8
		L193.6,46.9z"/>
	<path class="st1" d="M195.9,51.3c0-2.3,1.1-4.1,3.8-4.1c2.9,0,3.8,1.9,3.8,4.1c0,1.6-0.4,2.6-1.1,3.2c-0.7,0.7-1.6,0.9-2.8,0.9
		C197.5,55.4,195.9,54.3,195.9,51.3z M197.8,51.3c0,1.6,0.3,3.5,2,3.5c1.6,0,2-1.6,2-3.5c0-1.8-0.3-3.5-2-3.5
		C198,47.8,197.8,49.7,197.8,51.3z"/>
	<path class="st1" d="M212,48.5c0.6-0.7,1.4-1.3,2.5-1.3s2.2,0.6,2.2,2.7v3.6c0,1,0.1,1.1,0.8,1.1v0.5h-3.4v-0.5
		c0.7,0,0.8-0.1,0.8-1.1v-3.6c0-1.1-0.2-2-1.1-2c-0.7,0-1.3,0.5-1.8,1.3v4.2c0,1.1,0.1,1.1,0.8,1.1V55h-3.4v-0.5
		c0.7,0,0.8-0.1,0.8-1.1v-3.5c0-0.8,0-2.1-1.1-2.1c-0.6,0-1.1,0.5-1.8,1.3v4.2c0,1.1,0.1,1.2,0.8,1.2V55h-3.6v-0.5
		c0.9,0,1-0.1,1-1.2v-3.8c0-1.1-0.1-1.2-1-1.2v-0.5c0.8-0.1,1.7-0.3,2.4-0.7l0.2,0.1l0.1,1.2l0,0c0.6-0.7,1.4-1.3,2.5-1.3
		C210.8,47.2,211.6,47.6,212,48.5L212,48.5z"/>
	<path class="st1" d="M225.7,48.5c0.6-0.7,1.4-1.3,2.5-1.3s2.2,0.6,2.2,2.7v3.6c0,1,0.1,1.1,0.8,1.1v0.5h-3.4v-0.5
		c0.7,0,0.8-0.1,0.8-1.1v-3.6c0-1.1-0.2-2-1.1-2c-0.7,0-1.3,0.5-1.8,1.3v4.2c0,1.1,0.1,1.1,0.8,1.1V55h-3.4v-0.5
		c0.7,0,0.8-0.1,0.8-1.1v-3.5c0-0.8,0-2.1-1.1-2.1c-0.6,0-1.1,0.5-1.8,1.3v4.2c0,1.1,0.1,1.2,0.8,1.2V55h-3.6v-0.5
		c0.9,0,1-0.1,1-1.2v-3.8c0-1.1-0.1-1.2-1-1.2v-0.5c0.8-0.1,1.7-0.3,2.4-0.7l0.2,0.1l0.1,1.2l0,0c0.6-0.7,1.4-1.3,2.5-1.3
		C224.5,47.2,225.3,47.6,225.7,48.5L225.7,48.5z"/>
	<path class="st1" d="M239.6,53.5c0,1.1,0.1,1.2,1,1.2v0.5c-0.8,0-1.5,0-2.5,0.2l-0.2-0.1l-0.1-1.1l0,0c-0.5,0.6-1.3,1.2-2.5,1.2
		c-1.8,0-2.5-1-2.5-2.8v-3c0-1-0.1-1.1-0.9-1.1V48c0.7-0.1,1.6-0.4,2.4-0.7l0.2,0.1v5.1c0,0.6,0,2.1,1.4,2.1c0.7,0,1.3-0.4,1.8-1.1
		v-3.9c0-1-0.1-1.1-0.8-1.1V48c0.7-0.1,1.6-0.4,2.4-0.7l0.2,0.1v6.1C239.5,53.5,239.6,53.5,239.6,53.5z"/>
	<path class="st1" d="M244.1,48.6c0.7-0.9,1.6-1.4,2.6-1.4c1.7,0,2.4,0.9,2.4,2.6v3.8c0,1,0.1,1.2,0.8,1.2v0.5h-3.4v-0.5
		c0.7,0,0.8-0.1,0.8-1.2v-3.8c0-1.3-0.4-1.8-1.3-1.8c-0.6,0-1.3,0.6-2,1.5v4c0,1.1,0,1.2,0.8,1.2v0.5h-3.5v-0.5c0.9,0,1-0.1,1-1.2
		v-3.8c0-1.1-0.1-1.2-1-1.2V48c0.8-0.1,1.7-0.3,2.4-0.7l0.2,0.1L244.1,48.6L244.1,48.6z"/>
	<path class="st1" d="M253.6,47.3v6.2c0,1.1,0.1,1.2,1,1.2v0.5h-3.8v-0.5c1,0,1.1-0.1,1.1-1.2v-3.9c0-1.1,0-1.1-1.1-1.1V48
		c0.9-0.1,1.7-0.3,2.6-0.7H253.6z M253.7,45.1c0,0.7-0.5,1.2-1.1,1.2s-1-0.5-1-1.2s0.5-1.2,1-1.2C253.3,44,253.7,44.5,253.7,45.1z"
		/>
	<path class="st1" d="M262.1,53.7c-0.6,1-1.5,1.8-2.9,1.8c-3.3,0-3.7-2.9-3.7-4.2c0-2.4,1.4-4.1,3.8-4.1c1.6,0,2.6,0.9,2.6,1.7
		c0,0.4-0.2,0.7-0.6,0.7c-0.5,0-0.7-0.5-0.9-0.9c-0.2-0.5-0.5-0.9-1.1-0.9c-1,0-1.9,1-1.9,3.4c0,3,1.4,3.5,2.1,3.5
		c1.1,0,1.7-0.8,2-1.3L262.1,53.7z"/>
	<path class="st1" d="M267.8,49.5c0-1.2-0.5-1.7-1.4-1.7c-0.8,0-1.3,0.5-1.6,1.2c-0.1,0.3-0.3,0.5-0.8,0.5s-0.7-0.3-0.7-0.6
		c0-0.8,1-1.7,3.2-1.7c1.6,0,3,0.4,3,2.6v3.7c0,0.8,0.2,1.1,0.5,1.1c0.2,0,0.3,0,0.4-0.1l0.1,0.5c-0.4,0.1-0.7,0.2-1.4,0.2
		c-0.8,0-1.2-0.3-1.4-0.9h-0.1c-0.5,0.5-1.2,1-2.5,1c-1.1,0-2.3-0.7-2.3-2.1c0-0.8,0.3-1.4,1.1-1.9c0.6-0.4,1.5-0.7,2.6-1l1.1-0.3
		v-0.5H267.8z M267.8,50.8c-1.4,0.4-2.9,1-2.9,2.3c0,1.2,0.8,1.4,1.3,1.4c0.7,0,1.2-0.4,1.6-0.8V50.8z"/>
	<path class="st1" d="M271.2,48v-0.5c1.2-0.1,1.8-0.8,2.3-2.5h0.5v2.4h2v0.7h-2v5.3c0,0.9,0.3,1.3,0.9,1.3c0.4,0,0.8-0.1,1.1-0.4
		l0.3,0.5c-0.5,0.4-1.1,0.7-2,0.7c-1.1,0-2.1-0.4-2.1-2.1v-5.3h-1L271.2,48L271.2,48z"/>
	<path class="st1" d="M279.8,47.3v6.2c0,1.1,0.1,1.2,1,1.2v0.5H277v-0.5c1,0,1.1-0.1,1.1-1.2v-3.9c0-1.1,0-1.1-1.1-1.1V48
		c0.9-0.1,1.7-0.3,2.6-0.7H279.8z M279.8,45.1c0,0.7-0.5,1.2-1.1,1.2s-1-0.5-1-1.2s0.5-1.2,1-1.2C279.4,44,279.8,44.5,279.8,45.1z"
		/>
	<path class="st1" d="M281.7,51.3c0-2.3,1.1-4.1,3.8-4.1c2.9,0,3.8,1.9,3.8,4.1c0,1.6-0.4,2.6-1.1,3.2c-0.7,0.7-1.6,0.9-2.8,0.9
		C283.2,55.4,281.7,54.3,281.7,51.3z M283.6,51.3c0,1.6,0.3,3.5,2,3.5c1.6,0,2-1.6,2-3.5c0-1.8-0.3-3.5-2-3.5
		C283.8,47.8,283.6,49.7,283.6,51.3z"/>
	<path class="st1" d="M293.2,48.6c0.7-0.9,1.6-1.4,2.6-1.4c1.7,0,2.4,0.9,2.4,2.6v3.8c0,1,0.1,1.2,0.8,1.2v0.5h-3.4v-0.5
		c0.7,0,0.8-0.1,0.8-1.2v-3.8c0-1.3-0.4-1.8-1.3-1.8c-0.6,0-1.3,0.6-2,1.5v4c0,1.1,0,1.2,0.8,1.2v0.5h-3.5v-0.5c0.9,0,1-0.1,1-1.2
		v-3.8c0-1.1-0.1-1.2-1-1.2V48c0.8-0.1,1.7-0.3,2.4-0.7l0.2,0.1L293.2,48.6L293.2,48.6z"/>
	<path class="st1" d="M300.3,52.9c0.4,1.5,1.1,1.9,2.1,1.9c1.3,0,1.6-0.8,1.6-1.3c0-0.3-0.1-0.6-0.3-0.8c-0.3-0.3-0.8-0.5-1.6-1
		c-0.7-0.4-1.3-0.7-1.7-1.1c-0.3-0.4-0.5-0.8-0.5-1.3c0-1,0.9-2,3-2c0.9,0,1.6,0.2,2.2,0.4c0.1,0.5,0.1,1,0.3,1.8l-0.6,0.1
		c-0.3-1.2-0.7-1.6-1.7-1.6c-0.6,0-1.5,0.3-1.5,1c0,0.4,0.2,0.7,0.7,1s1.2,0.6,1.6,0.8c1.3,0.7,1.9,1.4,1.9,2.4
		c0,1.3-1.2,2.4-3.3,2.4c-1.1,0-1.9-0.2-2.5-0.5c-0.1-0.7-0.2-1.3-0.3-1.9L300.3,52.9z"/>
	<path class="st1" d="M311,54.6c1.2,0,1.3-0.2,1.3-1.3v-7.8c0-1.1-0.1-1.3-1.3-1.3v-0.6h4.5v0.6c-1.2,0-1.3,0.1-1.3,1.3v7.8
		c0,1.1,0.1,1.3,1.3,1.3v0.6H311V54.6z"/>
	<path class="st1" d="M319.3,48.6c0.7-0.9,1.6-1.4,2.6-1.4c1.7,0,2.4,0.9,2.4,2.6v3.8c0,1,0.1,1.2,0.8,1.2v0.5h-3.4v-0.5
		c0.7,0,0.8-0.1,0.8-1.2v-3.8c0-1.3-0.4-1.8-1.3-1.8c-0.6,0-1.3,0.6-2,1.5v4c0,1.1,0,1.2,0.8,1.2v0.5h-3.5v-0.5c0.9,0,1-0.1,1-1.2
		v-3.8c0-1.1-0.1-1.2-1-1.2V48c0.8-0.1,1.7-0.3,2.4-0.7l0.2,0.1L319.3,48.6L319.3,48.6z"/>
	<path class="st1" d="M332.6,53.7c-0.6,1-1.5,1.8-2.9,1.8c-3.3,0-3.7-2.9-3.7-4.2c0-2.4,1.4-4.1,3.8-4.1c1.6,0,2.6,0.9,2.6,1.7
		c0,0.4-0.2,0.7-0.6,0.7c-0.5,0-0.7-0.5-0.9-0.9c-0.2-0.5-0.5-0.9-1.1-0.9c-1,0-1.9,1-1.9,3.4c0,3,1.4,3.5,2.1,3.5
		c1.1,0,1.7-0.8,2-1.3L332.6,53.7z"/>
	<path class="st1" d="M335.7,54.4c0,0.5-0.4,1-1,1s-1-0.5-1-1c0-0.6,0.4-1,1-1S335.7,53.9,335.7,54.4z"/>
</g>
</svg>
